#!OML:ASF H:\Dans Jumps\Project 1\Capture day 1\Session 1\subject.ASF
:FULLY-SPECIFIED
:DEGREES
445
root 0.65328 17.7383 6.33171 5.62813 1.68271 -1.88701
lowerback -1.11973 -0.408537 0.328216
upperback 2.27908 -0.593089 1.50275
thorax 2.97991 -0.307007 1.33788
lowerneck -13.3435 -0.368751 -2.09284
upperneck 26.4145 -0.312225 1.14477
head 10.6893 -0.212666 0.72806
rclavicle -6.33626e-015 1.98785e-014
rhumerus -26.0053 -20.9248 -79.8835
rradius 20.4765
rwrist 39.8493
rhand -18.7293 -26.7855
rfingers 7.12502
rthumb 7.56648 -56.6301
lclavicle -6.33626e-015 1.98785e-014
lhumerus -17.8309 7.00731 89.0051
lradius 13.0707
lwrist -4.97158
lhand -26.1388 -6.06746
lfingers 7.12502
lthumb 0.411725 23.9119
rfemur -14.5056 -1.88218 20.6038
rtibia 20.4039
rfoot -10.6593 -0.541653
rtoes 18.0001
lfemur -13.2895 6.10077 -17.2134
ltibia 19.0621
lfoot -8.94963 2.35082
ltoes -3.58727
446
root 0.656234 17.7396 6.33902 5.64586 1.65323 -1.87742
lowerback -1.15827 -0.414436 0.287656
upperback 2.26061 -0.59997 1.49739
thorax 2.9831 -0.31127 1.35463
lowerneck -13.3524 -0.361574 -2.09402
upperneck 26.3612 -0.303418 1.15151
head 10.6712 -0.207814 0.731517
rclavicle -2.83268e-015 -4.57205e-015
rhumerus -25.9302 -20.7808 -79.9821
rradius 20.5774
rwrist 39.6764
rhand -18.727 -26.8095
rfingers 7.12502
rthumb 7.56862 -56.654
lclavicle -2.83268e-015 -4.57205e-015
lhumerus -17.7761 6.98215 89.0133
lradius 13.0967
lwrist -4.95077
lhand -26.1451 -6.03107
lfingers 7.12502
lthumb 0.405567 23.9483
rfemur -14.4749 -1.86797 20.5826
rtibia 20.3556
rfoot -10.6597 -0.538546
rtoes 17.9858
lfemur -13.2494 6.20157 -17.2384
ltibia 19.0021
lfoot -8.96632 2.28679
ltoes -3.5707
447
root 0.659525 17.741 6.34661 5.66398 1.62812 -1.86207
lowerback -1.20507 -0.420933 0.249315
upperback 2.24364 -0.607708 1.48865
thorax 2.99247 -0.315877 1.36658
lowerneck -13.3616 -0.356449 -2.09159
upperneck 26.309 -0.297112 1.15355
head 10.6535 -0.204304 0.732356
rclavicle -4.32357e-015 -1.0138e-014
rhumerus -25.842 -20.632 -80.0922
rradius 20.6816
rwrist 39.4936
rhand -18.734 -26.8307
rfingers 7.12502
rthumb 7.56192 -56.6755
lclavicle -4.32357e-015 -1.0138e-014
lhumerus -17.72 6.89322 89.0359
lradius 13.1422
lwrist -4.8496
lhand -26.1191 -5.91249
lfingers 7.12502
lthumb 0.430741 24.0668
rfemur -14.4428 -1.88123 20.554
rtibia 20.3088
rfoot -10.6637 -0.510714
rtoes 17.9753
lfemur -13.2014 6.30033 -17.2714
ltibia 18.9314
lfoot -8.98262 2.2196
ltoes -3.5625
448
root 0.663001 17.7424 6.35396 5.68261 1.6093 -1.84329
lowerback -1.2535 -0.429109 0.214123
upperback 2.22753 -0.617705 1.4777
thorax 3.00364 -0.321515 1.37438
lowerneck -13.3791 -0.349523 -2.08495
upperneck 26.2631 -0.288116 1.15192
head 10.6397 -0.19959 0.731548
rclavicle -2.38542e-015 -8.15017e-015
rhumerus -25.739 -20.469 -80.2163
rradius 20.788
rwrist 39.2911
rhand -18.7461 -26.8483
rfingers 7.12502
rthumb 7.55023 -56.6936
lclavicle -2.38542e-015 -8.15017e-015
lhumerus -17.6612 6.75741 89.0686
lradius 13.201
lwrist -4.69033
lhand -26.0604 -5.73564
lfingers 7.12502
lthumb 0.487375 24.2435
rfemur -14.4118 -1.91624 20.5213
rtibia 20.2634
rfoot -10.6681 -0.465038
rtoes 17.9741
lfemur -13.1519 6.38955 -17.3086
ltibia 18.8566
lfoot -8.9968 2.15356
ltoes -3.55747
449
root 0.666292 17.7437 6.36062 5.70215 1.5917 -1.82821
lowerback -1.29703 -0.437029 0.183293
upperback 2.20959 -0.627394 1.46784
thorax 3.01013 -0.326896 1.38088
lowerneck -13.4013 -0.339582 -2.08153
upperneck 26.2235 -0.274988 1.15411
head 10.6292 -0.192861 0.733235
rclavicle -3.13086e-015 2.38542e-015
rhumerus -25.6261 -20.3094 -80.3451
rradius 20.8915
rwrist 39.0877
rhand -18.7715 -26.8505
rfingers 7.12502
rthumb 7.52572 -56.6966
lclavicle -3.13086e-015 2.38542e-015
lhumerus -17.6096 6.61893 89.1025
lradius 13.2653
lwrist -4.53664
lhand -25.9999 -5.59698
lfingers 7.12502
lthumb 0.545798 24.3821
rfemur -14.3856 -1.94851 20.4932
rtibia 20.2192
rfoot -10.6697 -0.421468
rtoes 17.9767
lfemur -13.1077 6.46909 -17.3404
ltibia 18.785
lfoot -9.00869 2.09522
ltoes -3.55465
450
root 0.669084 17.745 6.36626 5.72241 1.57404 -1.82225
lowerback -1.33087 -0.444546 0.156479
upperback 2.189 -0.636625 1.46283
thorax 3.00844 -0.33199 1.39021
lowerneck -13.4334 -0.325984 -2.07979
upperneck 26.1942 -0.256302 1.15721
head 10.6243 -0.183665 0.736324
rclavicle 6.18717e-015 3.37934e-015
rhumerus -25.5059 -20.1233 -80.4848
rradius 21.002
rwrist 38.8559
rhand -18.7942 -26.8571
rfingers 7.12502
rthumb 7.50379 -56.704
lclavicle 6.18717e-015 3.37934e-015
lhumerus -17.5655 6.49711 89.1352
lradius 13.3254
lwrist -4.41669
lhand -25.9559 -5.53444
lfingers 7.12502
lthumb 0.588355 24.4445
rfemur -14.3658 -1.95913 20.4768
rtibia 20.1763
rfoot -10.6689 -0.397783
rtoes 17.9848
lfemur -13.0729 6.53767 -17.3592
ltibia 18.7202
lfoot -9.01617 2.04813
ltoes -3.55854
451
root 0.671443 17.7461 6.37116 5.74171 1.55376 -1.81795
lowerback -1.35578 -0.451504 0.125121
upperback 2.16593 -0.644931 1.46116
thorax 2.99922 -0.33674 1.40563
lowerneck -13.4671 -0.311003 -2.08328
upperneck 26.1714 -0.234861 1.16231
head 10.6221 -0.17351 0.74142
rclavicle 3.18055e-015 -9.93923e-016
rhumerus -25.3836 -19.924 -80.6275
rradius 21.1152
rwrist 38.6141
rhand -18.8195 -26.8634
rfingers 7.12502
rthumb 7.47938 -56.7112
lclavicle 3.18055e-015 -9.93923e-016
lhumerus -17.5289 6.39949 89.1641
lradius 13.3704
lwrist -4.34906
lhand -25.9496 -5.58709
lfingers 7.12502
lthumb 0.594397 24.3918
rfemur -14.3492 -1.9505 20.4634
rtibia 20.1344
rfoot -10.6648 -0.391355
rtoes 17.9913
lfemur -13.0448 6.59513 -17.3736
ltibia 18.6637
lfoot -9.02042 2.01421
ltoes -3.55952
452
root 0.673608 17.7471 6.37583 5.75904 1.53628 -1.81524
lowerback -1.38331 -0.460358 0.0924188
upperback 2.14837 -0.655892 1.46214
thorax 2.99729 -0.342905 1.42439
lowerneck -13.499 -0.294329 -2.0893
upperneck 26.139 -0.210545 1.16797
head 10.6159 -0.162184 0.747465
rclavicle -6.60959e-015 -4.17448e-015
rhumerus -25.2497 -19.6965 -80.7839
rradius 21.2407
rwrist 38.3463
rhand -18.8482 -26.8738
rfingers 7.12502
rthumb 7.45172 -56.7226
lclavicle -6.60959e-015 -4.17448e-015
lhumerus -17.4852 6.31949 89.1903
lradius 13.4071
lwrist -4.31373
lhand -25.9765 -5.71442
lfingers 7.12502
lthumb 0.568441 24.2646
rfemur -14.331 -1.93874 20.4529
rtibia 20.0928
rfoot -10.6611 -0.392166
rtoes 17.9863
lfemur -13.0189 6.6415 -17.385
ltibia 18.6124
lfoot -9.02407 1.98964
ltoes -3.55816
453
root 0.675784 17.7481 6.38058 5.77295 1.52184 -1.81326
lowerback -1.41229 -0.469829 0.0596371
upperback 2.13153 -0.667761 1.46606
thorax 2.99702 -0.349563 1.44616
lowerneck -13.5276 -0.280386 -2.0965
upperneck 26.1103 -0.188699 1.16931
head 10.6105 -0.152634 0.751865
rclavicle 2.50966e-015 3.57812e-015
rhumerus -25.1251 -19.4149 -80.9516
rradius 21.3961
rwrist 38.0315
rhand -18.8668 -26.8997
rfingers 7.12502
rthumb 7.43376 -56.7491
lclavicle 2.50966e-015 3.57812e-015
lhumerus -17.4396 6.25275 89.2161
lradius 13.4315
lwrist -4.30287
lhand -26.0277 -5.89319
lfingers 7.12502
lthumb 0.518998 24.0859
rfemur -14.3085 -1.93135 20.4433
rtibia 20.0515
rfoot -10.6589 -0.392486
rtoes 17.9819
lfemur -12.9886 6.675 -17.3949
ltibia 18.5613
lfoot -9.02441 1.97439
ltoes -3.54487
454
root 0.678214 17.7492 6.38565 5.78324 1.51071 -1.80873
lowerback -1.44819 -0.479113 0.0288492
upperback 2.1185 -0.679514 1.46925
thorax 3.00455 -0.35614 1.46599
lowerneck -13.5514 -0.269027 -2.09817
upperneck 26.0811 -0.169752 1.16244
head 10.604 -0.14484 0.752002
rclavicle 1.81391e-015 8.54774e-015
rhumerus -24.9983 -19.1313 -81.1213
rradius 21.5584
rwrist 37.7162
rhand -18.8857 -26.9246
rfingers 7.12502
rthumb 7.41553 -56.7747
lclavicle 1.81391e-015 8.54774e-015
lhumerus -17.3851 6.19948 89.2393
lradius 13.4503
lwrist -4.30371
lhand -26.0771 -6.07111
lfingers 7.12502
lthumb 0.471266 23.9081
rfemur -14.2793 -1.94036 20.4301
rtibia 20.0089
rfoot -10.6577 -0.380312
rtoes 17.9699
lfemur -12.9511 6.69697 -17.4084
ltibia 18.5075
lfoot -9.02353 1.96701
ltoes -3.52697
455
root 0.680876 17.7503 6.39107 5.78972 1.50183 -1.80068
lowerback -1.49225 -0.486947 -0.00115354
upperback 2.10961 -0.689437 1.47157
thorax 3.02089 -0.361815 1.4845
lowerneck -13.5724 -0.262592 -2.09612
upperneck 26.0534 -0.157396 1.15051
head 10.5977 -0.140296 0.748843
rclavicle 7.00716e-015 -2.18663e-015
rhumerus -24.8709 -18.8381 -81.2937
rradius 21.7317
rwrist 37.3913
rhand -18.9 -26.9503
rfingers 7.12502
rthumb 7.40164 -56.8008
lclavicle 7.00716e-015 -2.18663e-015
lhumerus -17.3176 6.14954 89.2648
lradius 13.4609
lwrist -4.29488
lhand -26.1075 -6.19069
lfingers 7.12502
lthumb 0.44195 23.7886
rfemur -14.2438 -1.96178 20.412
rtibia 19.9652
rfoot -10.6581 -0.357273
rtoes 17.9564
lfemur -12.9046 6.70754 -17.4263
ltibia 18.4495
lfoot -9.02194 1.96769
ltoes -3.50197
